<svg width="27" height="27" viewBox="0 0 27 27" fill="none" xmlns="http://www.w3.org/2000/svg">
<path fill-rule="evenodd" clip-rule="evenodd" d="M13.5 15.8873L19.4659 21.8531C19.7825 22.1697 20.2118 22.3475 20.6595 22.3475C21.1072 22.3475 21.5366 22.1697 21.8532 21.8531C22.1697 21.5366 22.3476 21.1072 22.3476 20.6595C22.3476 20.2118 22.1697 19.7824 21.8532 19.4659L15.885 13.5L21.852 7.53413C22.0087 7.37738 22.133 7.1913 22.2177 6.98653C22.3025 6.78176 22.3461 6.56229 22.3461 6.34067C22.346 6.11904 22.3023 5.8996 22.2174 5.69486C22.1326 5.49013 22.0082 5.30411 21.8515 5.14744C21.6947 4.99076 21.5087 4.8665 21.3039 4.78173C21.0991 4.69697 20.8796 4.65337 20.658 4.65342C20.4364 4.65347 20.217 4.69718 20.0122 4.78204C19.8075 4.8669 19.6215 4.99125 19.4648 5.148L13.5 11.1139L7.53417 5.148C7.37858 4.98676 7.19243 4.85811 6.98659 4.76958C6.78075 4.68104 6.55934 4.63439 6.33528 4.63233C6.11121 4.63028 5.88899 4.67287 5.68156 4.75763C5.47413 4.84238 5.28566 4.96759 5.12714 5.12596C4.96863 5.28433 4.84324 5.47268 4.75829 5.68003C4.67334 5.88737 4.63054 6.10956 4.63238 6.33363C4.63422 6.55769 4.68067 6.77915 4.76901 6.98507C4.85735 7.19099 4.98582 7.37726 5.14692 7.533L11.115 13.5L5.14804 19.467C4.98694 19.6227 4.85848 19.809 4.77014 20.0149C4.68179 20.2209 4.63535 20.4423 4.63351 20.6664C4.63167 20.8904 4.67447 21.1126 4.75941 21.32C4.84436 21.5273 4.96975 21.7157 5.12827 21.874C5.28679 22.0324 5.47526 22.1576 5.68268 22.2424C5.89011 22.3271 6.11234 22.3697 6.3364 22.3677C6.56047 22.3656 6.78188 22.319 6.98772 22.2304C7.19356 22.1419 7.3797 22.0132 7.53529 21.852L13.5 15.8873Z" fill="white"/>
</svg>
