<svg width="60" height="60" viewBox="0 0 60 60" fill="none" xmlns="http://www.w3.org/2000/svg">
<path d="M30 50.4C18.72 50.4 9.59998 41.28 9.59998 30C9.59998 18.72 18.72 9.59998 30 9.59998C41.28 9.59998 50.4 18.72 50.4 30C50.4 41.28 41.28 50.4 30 50.4ZM30 12C20.04 12 12 20.04 12 30C12 39.96 20.04 48 30 48C39.96 48 48 39.96 48 30C48 20.04 39.96 12 30 12Z" fill="white"/>
<path d="M29.64 41.64L27.96 39.96L37.92 30L27.96 20.04L29.64 18.36L41.28 30L29.64 41.64Z" fill="white"/>
<path d="M19.2 28.8H39.6V31.2H19.2V28.8Z" fill="white"/>
</svg>
