<svg width="60" height="60" viewBox="0 0 60 60" fill="none" xmlns="http://www.w3.org/2000/svg">
<path d="M30 50.4C41.28 50.4 50.4 41.28 50.4 30C50.4 18.72 41.28 9.59998 30 9.59998C18.72 9.59998 9.60003 18.72 9.60003 30C9.60003 41.28 18.72 50.4 30 50.4ZM30 12C39.96 12 48 20.04 48 30C48 39.96 39.96 48 30 48C20.04 48 12 39.96 12 30C12 20.04 20.04 12 30 12Z" fill="white"/>
<path d="M30.36 41.64L32.04 39.96L22.08 30L32.04 20.04L30.36 18.36L18.72 30L30.36 41.64Z" fill="white"/>
<path d="M40.8 28.8H20.4V31.2H40.8V28.8Z" fill="white"/>
</svg>
