<svg width="148" height="28" viewBox="0 0 148 28" fill="none" xmlns="http://www.w3.org/2000/svg">
<path d="M9.4 27L0.4 0.36H6.8L13.12 20.68L19.4 0.36H25.36L16.4 27H9.4ZM39.9963 27.52C37.3563 27.52 35.0363 26.9467 33.0363 25.8C31.0629 24.6533 29.5163 23.0533 28.3963 21C27.3029 18.92 26.7563 16.52 26.7563 13.8C26.7563 11.0267 27.3029 8.61333 28.3963 6.56C29.5163 4.50667 31.0629 2.90667 33.0363 1.76C35.0363 0.613332 37.3563 0.039999 39.9963 0.039999C42.6363 0.039999 44.9429 0.613332 46.9163 1.76C48.9163 2.88 50.4629 4.46667 51.5563 6.52C52.6496 8.54667 53.1963 10.92 53.1963 13.64C53.1963 16.4133 52.6496 18.84 51.5563 20.92C50.4629 23 48.9163 24.6267 46.9163 25.8C44.9429 26.9467 42.6363 27.52 39.9963 27.52ZM39.9963 22.44C42.2096 22.44 43.9696 21.6533 45.2763 20.08C46.5829 18.5067 47.2363 16.4133 47.2363 13.8C47.2363 12.0667 46.9296 10.5467 46.3163 9.24C45.7296 7.93333 44.8896 6.92 43.7963 6.2C42.7029 5.48 41.4363 5.13333 39.9963 5.16C38.5563 5.13333 37.2896 5.48 36.1963 6.2C35.1296 6.92 34.2896 7.93333 33.6763 9.24C33.0629 10.5467 32.7563 12.0667 32.7563 13.8C32.7563 15.5333 33.0496 17.0533 33.6363 18.36C34.2496 19.64 35.1029 20.64 36.1963 21.36C37.2896 22.08 38.5563 22.44 39.9963 22.44ZM57.4447 27V0.36C58.058 0.333332 58.7514 0.319998 59.5247 0.319998C60.298 0.319998 61.098 0.319998 61.9247 0.319998C62.7514 0.319998 63.5647 0.319998 64.3647 0.319998C65.1647 0.319998 65.858 0.333332 66.4447 0.36C69.5914 0.466665 71.8847 1.24 73.3247 2.68C74.7647 4.09333 75.4847 5.90667 75.4847 8.12C75.4847 10.0667 74.978 11.7333 73.9647 13.12C72.978 14.48 71.5914 15.3867 69.8047 15.84C70.418 16.32 71.018 16.9733 71.6047 17.8C72.1914 18.6 72.978 19.7867 73.9647 21.36C74.4714 22.1333 74.8847 22.8133 75.2047 23.4C75.5514 23.9867 75.8847 24.56 76.2047 25.12C76.5247 25.6533 76.8847 26.28 77.2847 27H70.5647L66.0447 18.6C65.538 17.6667 65.0847 17.1067 64.6847 16.92C64.2847 16.7067 63.7247 16.6 63.0047 16.6V27H57.4447ZM63.0047 12.16H65.4847C66.8714 12.16 67.9514 11.8133 68.7247 11.12C69.498 10.4267 69.8847 9.49333 69.8847 8.32C69.8847 6.13333 68.5247 5.04 65.8047 5.04H63.0047V12.16ZM85.6675 27V5.4H78.3875V0.36H98.7075V5.4H91.5075V27H85.6675ZM102.722 27V0.36H118.922V5.4H108.442V10.72H117.122V15.6H108.442V21.96H118.922V27H102.722ZM121.373 27L130.853 13.32L122.053 0.36H128.933L134.733 8.92L140.533 0.36H146.933L138.173 13L147.813 27H140.733L134.293 17.6L128.053 27H121.373Z" fill="#FFCC00"/>
</svg>
